<svg width="107" height="36" viewBox="0 0 107 36" fill="none" xmlns="http://www.w3.org/2000/svg">
<path d="M101.419 35.6003V29.638H105.997V30.8215H102.491L102.815 30.5089V35.6003H101.419Z" fill="#0056B9"/>
<path d="M93.7539 35.6003V29.638H95.1496V32.0609H98.1531V29.638H99.5488V35.6003H98.1531V33.2444H95.1496V35.6003H93.7539Z" fill="#0056B9"/>
<path d="M85.9141 35.6003V29.638H87.3097V33.5682L90.6035 29.638H91.8764V35.6003H90.4807V31.6701L87.1981 35.6003H85.9141Z" fill="#0056B9"/>
<path d="M81.4175 35.6003V30.4866L81.7413 30.8215H79.3184V29.638H84.9011V30.8215H82.4893L82.8131 30.4866V35.6003H81.4175Z" fill="#0056B9"/>
<path d="M72.0244 35.5892L72.0914 34.4168C72.1435 34.4242 72.1919 34.4317 72.2366 34.4391C72.2812 34.4466 72.3222 34.4503 72.3594 34.4503C72.5901 34.4503 72.7688 34.3796 72.8953 34.2381C73.0219 34.0967 73.1149 33.9069 73.1745 33.6687C73.2414 33.4231 73.2861 33.1514 73.3084 32.8536C73.3382 32.5484 73.3605 32.2433 73.3754 31.9381L73.4759 29.638H78.2994V35.6003H76.9037V30.4419L77.2275 30.8215H74.3915L74.6929 30.4307L74.6148 32.0051C74.5925 32.5336 74.5478 33.0248 74.4808 33.4789C74.4213 33.9255 74.3245 34.3163 74.1905 34.6513C74.064 34.9862 73.8853 35.2468 73.6546 35.4328C73.4313 35.6189 73.1447 35.712 72.7948 35.712C72.6832 35.712 72.5604 35.7008 72.4264 35.6785C72.2998 35.6562 72.1658 35.6264 72.0244 35.5892Z" fill="#0056B9"/>
<path d="M69.8506 35.6002V34.3944L69.7725 34.1376V32.0273C69.7725 31.6179 69.6497 31.3016 69.404 31.0783C69.1584 30.8475 68.7862 30.7321 68.2875 30.7321C67.9525 30.7321 67.6213 30.7842 67.2938 30.8884C66.9737 30.9927 66.702 31.1378 66.4787 31.3239L65.9316 30.3078C66.2517 30.0622 66.6313 29.8798 67.0704 29.7607C67.5171 29.6342 67.9786 29.5709 68.455 29.5709C69.3184 29.5709 69.9846 29.7793 70.4536 30.1962C70.93 30.6056 71.1682 31.242 71.1682 32.1055V35.6002H69.8506ZM67.9748 35.6784C67.5282 35.6784 67.1374 35.604 66.8025 35.4551C66.4675 35.2988 66.207 35.0866 66.0209 34.8187C65.8423 34.5433 65.7529 34.2343 65.7529 33.8919C65.7529 33.557 65.8311 33.2555 65.9874 32.9875C66.1512 32.7196 66.4154 32.5074 66.7801 32.3511C67.1449 32.1948 67.6287 32.1166 68.2317 32.1166H69.9623V33.0434H68.3321C67.8557 33.0434 67.5357 33.1215 67.3719 33.2778C67.2082 33.4267 67.1263 33.6128 67.1263 33.8361C67.1263 34.0892 67.2268 34.2902 67.4277 34.439C67.6287 34.5879 67.9079 34.6623 68.2651 34.6623C68.6076 34.6623 68.9127 34.5842 69.1807 34.4279C69.4561 34.2716 69.6534 34.0408 69.7725 33.7356L70.007 34.573C69.873 34.9229 69.631 35.1946 69.2812 35.3881C68.9388 35.5816 68.5033 35.6784 67.9748 35.6784Z" fill="#0056B9"/>
<path d="M62.4582 35.6784C61.833 35.6784 61.2747 35.5481 60.7834 35.2876C60.2996 35.0196 59.92 34.6549 59.6446 34.1934C59.3691 33.7319 59.2314 33.2071 59.2314 32.6191C59.2314 32.0236 59.3691 31.4988 59.6446 31.0448C59.92 30.5833 60.2996 30.2222 60.7834 29.9617C61.2747 29.7012 61.833 29.5709 62.4582 29.5709C63.0388 29.5709 63.5487 29.69 63.9879 29.9282C64.4345 30.159 64.7732 30.5014 65.004 30.9554L63.9321 31.5807C63.7534 31.2978 63.5338 31.0894 63.2733 30.9554C63.0202 30.8214 62.7448 30.7545 62.4471 30.7545C62.1047 30.7545 61.7958 30.8289 61.5204 30.9778C61.2449 31.1266 61.0291 31.3425 60.8728 31.6254C60.7164 31.9008 60.6383 32.232 60.6383 32.6191C60.6383 33.0061 60.7164 33.3411 60.8728 33.624C61.0291 33.8994 61.2449 34.1115 61.5204 34.2604C61.7958 34.4093 62.1047 34.4837 62.4471 34.4837C62.7448 34.4837 63.0202 34.4167 63.2733 34.2827C63.5338 34.1487 63.7534 33.9403 63.9321 33.6575L65.004 34.2827C64.7732 34.7293 64.4345 35.0755 63.9879 35.3211C63.5487 35.5593 63.0388 35.6784 62.4582 35.6784Z" fill="#0056B9"/>
<path d="M52.0801 35.6003V29.638H53.4758V32.0609H56.4792V29.638H57.8749V35.6003H56.4792V33.2444H53.4758V35.6003H52.0801Z" fill="#0056B9"/>
<path d="M47.5186 35.6784C46.9083 35.6784 46.3649 35.5481 45.8885 35.2876C45.4121 35.0196 45.0362 34.6549 44.7608 34.1934C44.4854 33.7319 44.3477 33.2071 44.3477 32.6191C44.3477 32.0236 44.4854 31.4988 44.7608 31.0448C45.0362 30.5833 45.4121 30.2222 45.8885 29.9617C46.3649 29.7012 46.9083 29.5709 47.5186 29.5709C48.1365 29.5709 48.6836 29.7012 49.1599 29.9617C49.6438 30.2222 50.0197 30.5795 50.2877 31.0336C50.5631 31.4877 50.7008 32.0161 50.7008 32.6191C50.7008 33.2071 50.5631 33.7319 50.2877 34.1934C50.0197 34.6549 49.6438 35.0196 49.1599 35.2876C48.6836 35.5481 48.1365 35.6784 47.5186 35.6784ZM47.5186 34.4837C47.861 34.4837 48.1662 34.4093 48.4342 34.2604C48.7022 34.1115 48.9106 33.8957 49.0595 33.6128C49.2158 33.3299 49.2939 32.9987 49.2939 32.6191C49.2939 32.232 49.2158 31.9008 49.0595 31.6254C48.9106 31.3425 48.7022 31.1266 48.4342 30.9778C48.1662 30.8289 47.8648 30.7545 47.5298 30.7545C47.1874 30.7545 46.8822 30.8289 46.6142 30.9778C46.3537 31.1266 46.1453 31.3425 45.989 31.6254C45.8327 31.9008 45.7545 32.232 45.7545 32.6191C45.7545 32.9987 45.8327 33.3299 45.989 33.6128C46.1453 33.8957 46.3537 34.1115 46.6142 34.2604C46.8822 34.4093 47.1837 34.4837 47.5186 34.4837Z" fill="#0056B9"/>
<path d="M42.4316 35.6003L40.2767 32.742L41.4156 32.0386L44.0729 35.6003H42.4316ZM38.1553 35.6003V29.638H39.5509V35.6003H38.1553ZM39.1378 33.2109V32.0497H41.1588V33.2109H39.1378ZM41.5496 32.7866L40.2432 32.6303L42.4316 29.638H43.9278L41.5496 32.7866Z" fill="#0056B9"/>
<path d="M101.037 21.9537V15.9913H102.433V19.9216L105.727 15.9913H106.999V21.9537H105.604V18.0234L102.321 21.9537H101.037ZM103.929 15.2879C103.333 15.2879 102.876 15.1502 102.556 14.8748C102.236 14.5919 102.072 14.1825 102.064 13.6466H102.991C102.999 13.9146 103.08 14.1267 103.237 14.283C103.4 14.4394 103.627 14.5175 103.918 14.5175C104.201 14.5175 104.424 14.4394 104.588 14.283C104.759 14.1267 104.848 13.9146 104.856 13.6466H105.805C105.797 14.1825 105.63 14.5919 105.302 14.8748C104.982 15.1502 104.524 15.2879 103.929 15.2879Z" fill="#0056B9"/>
<path d="M93.1973 21.9536V15.9913H94.5929V19.9215L97.8867 15.9913H99.1596V21.9536H97.7639V18.0234L94.4813 21.9536H93.1973Z" fill="#0056B9"/>
<path d="M86.2852 21.9536V15.9913H89.1993C89.9214 15.9913 90.4871 16.1253 90.8965 16.3933C91.3133 16.6612 91.5217 17.0409 91.5217 17.5321C91.5217 18.016 91.3282 18.3956 90.9411 18.671C90.5541 18.939 90.0405 19.073 89.4003 19.073L89.5678 18.7268C90.2898 18.7268 90.8258 18.8608 91.1756 19.1288C91.5329 19.3893 91.7115 19.7727 91.7115 20.2788C91.7115 20.8073 91.5143 21.2204 91.1198 21.5182C90.7253 21.8085 90.1261 21.9536 89.3221 21.9536H86.2852ZM87.6138 20.9376H89.2105C89.5901 20.9376 89.8767 20.878 90.0702 20.7589C90.2638 20.6324 90.3605 20.4426 90.3605 20.1895C90.3605 19.9215 90.2712 19.7243 90.0926 19.5977C89.9139 19.4712 89.6348 19.4079 89.2552 19.4079H87.6138V20.9376ZM87.6138 18.4812H89.0765C89.4338 18.4812 89.7018 18.4179 89.8804 18.2914C90.0665 18.1574 90.1596 17.9713 90.1596 17.7331C90.1596 17.4875 90.0665 17.3051 89.8804 17.186C89.7018 17.0669 89.4338 17.0074 89.0765 17.0074H87.6138V18.4812Z" fill="#0056B9"/>
<path d="M81.7237 22.0318C81.1133 22.0318 80.57 21.9016 80.0936 21.641C79.6172 21.3731 79.2413 21.0083 78.9659 20.5468C78.6904 20.0853 78.5527 19.5605 78.5527 18.9725C78.5527 18.377 78.6904 17.8522 78.9659 17.3982C79.2413 16.9367 79.6172 16.5757 80.0936 16.3151C80.57 16.0546 81.1133 15.9243 81.7237 15.9243C82.3415 15.9243 82.8886 16.0546 83.365 16.3151C83.8489 16.5757 84.2248 16.933 84.4927 17.387C84.7681 17.8411 84.9059 18.3696 84.9059 18.9725C84.9059 19.5605 84.7681 20.0853 84.4927 20.5468C84.2248 21.0083 83.8489 21.3731 83.365 21.641C82.8886 21.9016 82.3415 22.0318 81.7237 22.0318ZM81.7237 20.8371C82.0661 20.8371 82.3713 20.7627 82.6393 20.6138C82.9072 20.4649 83.1157 20.2491 83.2645 19.9662C83.4209 19.6834 83.499 19.3521 83.499 18.9725C83.499 18.5854 83.4209 18.2542 83.2645 17.9788C83.1157 17.6959 82.9072 17.4801 82.6393 17.3312C82.3713 17.1823 82.0698 17.1079 81.7349 17.1079C81.3925 17.1079 81.0873 17.1823 80.8193 17.3312C80.5588 17.4801 80.3504 17.6959 80.1941 17.9788C80.0377 18.2542 79.9596 18.5854 79.9596 18.9725C79.9596 19.3521 80.0377 19.6834 80.1941 19.9662C80.3504 20.2491 80.5588 20.4649 80.8193 20.6138C81.0873 20.7627 81.3887 20.8371 81.7237 20.8371Z" fill="#0056B9"/>
<path d="M75.3791 22.0318C74.7539 22.0318 74.1956 21.9016 73.7043 21.641C73.2205 21.3731 72.8409 21.0083 72.5655 20.5468C72.29 20.0853 72.1523 19.5605 72.1523 18.9725C72.1523 18.377 72.29 17.8522 72.5655 17.3982C72.8409 16.9367 73.2205 16.5757 73.7043 16.3151C74.1956 16.0546 74.7539 15.9243 75.3791 15.9243C75.9597 15.9243 76.4696 16.0434 76.9088 16.2816C77.3554 16.5124 77.6941 16.8548 77.9249 17.3089L76.853 17.9341C76.6743 17.6513 76.4547 17.4428 76.1942 17.3089C75.9411 17.1749 75.6657 17.1079 75.368 17.1079C75.0256 17.1079 74.7167 17.1823 74.4413 17.3312C74.1658 17.4801 73.95 17.6959 73.7937 17.9788C73.6373 18.2542 73.5592 18.5854 73.5592 18.9725C73.5592 19.3596 73.6373 19.6945 73.7937 19.9774C73.95 20.2528 74.1658 20.4649 74.4413 20.6138C74.7167 20.7627 75.0256 20.8371 75.368 20.8371C75.6657 20.8371 75.9411 20.7701 76.1942 20.6361C76.4547 20.5022 76.6743 20.2937 76.853 20.0109L77.9249 20.6361C77.6941 21.0828 77.3554 21.4289 76.9088 21.6745C76.4696 21.9127 75.9597 22.0318 75.3791 22.0318Z" fill="#0056B9"/>
<path d="M65.001 21.9536V15.9913H66.3967V18.4142H69.4001V15.9913H70.7958V21.9536H69.4001V19.5977H66.3967V21.9536H65.001Z" fill="#0056B9"/>
<path d="M61.9561 21.9537V20.7478L61.8779 20.491V18.3807C61.8779 17.9713 61.7551 17.655 61.5095 17.4317C61.2638 17.2009 60.8917 17.0856 60.3929 17.0856C60.058 17.0856 59.7267 17.1377 59.3992 17.2419C59.0792 17.3461 58.8075 17.4912 58.5842 17.6773L58.037 16.6613C58.3571 16.4156 58.7367 16.2333 59.1759 16.1142C59.6225 15.9876 60.084 15.9243 60.5604 15.9243C61.4239 15.9243 62.0901 16.1328 62.559 16.5496C63.0354 16.959 63.2736 17.5954 63.2736 18.4589V21.9537H61.9561ZM60.0803 22.0318C59.6337 22.0318 59.2429 21.9574 58.9079 21.8085C58.573 21.6522 58.3125 21.4401 58.1264 21.1721C57.9477 20.8967 57.8584 20.5878 57.8584 20.2454C57.8584 19.9104 57.9366 19.6089 58.0929 19.341C58.2566 19.073 58.5209 18.8609 58.8856 18.7045C59.2504 18.5482 59.7342 18.4701 60.3371 18.4701H62.0678V19.3968H60.4376C59.9612 19.3968 59.6411 19.4749 59.4774 19.6313C59.3136 19.7801 59.2317 19.9662 59.2317 20.1895C59.2317 20.4426 59.3322 20.6436 59.5332 20.7925C59.7342 20.9413 60.0133 21.0158 60.3706 21.0158C60.713 21.0158 61.0182 20.9376 61.2862 20.7813C61.5616 20.625 61.7589 20.3942 61.8779 20.089L62.1124 20.9265C61.9784 21.2763 61.7365 21.548 61.3867 21.7415C61.0443 21.9351 60.6088 22.0318 60.0803 22.0318Z" fill="#0056B9"/>
<path d="M50.6729 21.9536V15.9913H52.0685V18.4142H55.072V15.9913H56.4677V21.9536H55.072V19.5977H52.0685V21.9536H50.6729Z" fill="#0056B9"/>
<path d="M47.391 21.9536V15.9913H48.7867V21.9536H47.391ZM48.0944 15.0087C47.8339 15.0087 47.618 14.9269 47.4468 14.7631C47.2831 14.5993 47.2012 14.4021 47.2012 14.1713C47.2012 13.9331 47.2831 13.7359 47.4468 13.5796C47.618 13.4158 47.8339 13.3339 48.0944 13.3339C48.3549 13.3339 48.5671 13.4121 48.7308 13.5684C48.902 13.7173 48.9876 13.9071 48.9876 14.1378C48.9876 14.3835 48.9058 14.5919 48.742 14.7631C48.5782 14.9269 48.3624 15.0087 48.0944 15.0087Z" fill="#0056B9"/>
<path d="M41.9407 22.0654C41.9333 22.0654 41.8998 22.0654 41.8402 22.0654C41.7881 22.0654 41.736 22.0654 41.6839 22.0654C41.6392 22.0654 41.6095 22.0654 41.5946 22.0654C40.3366 22.0505 39.3615 21.7788 38.6692 21.2503C37.977 20.7144 37.6309 19.9514 37.6309 18.9614C37.6309 17.9789 37.977 17.2271 38.6692 16.706C39.3615 16.1849 40.3478 15.917 41.6281 15.9021C41.643 15.9021 41.6727 15.9021 41.7174 15.9021C41.7695 15.9021 41.8179 15.9021 41.8625 15.9021C41.9147 15.9021 41.9444 15.9021 41.9519 15.9021C43.2396 15.9021 44.2408 16.1663 44.9554 16.6948C45.6774 17.2159 46.0384 17.9714 46.0384 18.9614C46.0384 19.9589 45.6774 20.7255 44.9554 21.2615C44.2408 21.7974 43.2359 22.0654 41.9407 22.0654ZM41.896 20.9042C42.5288 20.9042 43.0498 20.8335 43.4592 20.692C43.8686 20.5432 44.1738 20.3273 44.3748 20.0445C44.5757 19.7542 44.6762 19.3931 44.6762 18.9614C44.6762 18.5371 44.5757 18.1873 44.3748 17.9119C44.1738 17.629 43.8686 17.4206 43.4592 17.2866C43.0498 17.1452 42.5288 17.0745 41.896 17.0745C41.8812 17.0745 41.8439 17.0745 41.7844 17.0745C41.7323 17.0745 41.6988 17.0745 41.6839 17.0745C41.0661 17.0745 40.5599 17.1489 40.1654 17.2978C39.7709 17.4392 39.4769 17.6476 39.2833 17.923C39.0972 18.1984 39.0042 18.5446 39.0042 18.9614C39.0042 19.3857 39.0972 19.7393 39.2833 20.0221C39.4769 20.305 39.7709 20.5208 40.1654 20.6697C40.5674 20.8186 41.0735 20.8967 41.6839 20.9042C41.6988 20.9042 41.7323 20.9042 41.7844 20.9042C41.8439 20.9042 41.8812 20.9042 41.896 20.9042ZM41.1703 24.1198V13.669H42.4878V24.1198H41.1703Z" fill="#0056B9"/>
<path d="M96.0107 8.30707V2.34474H97.4064V6.27496L100.7 2.34474H101.973V8.30707H100.577V4.37684L97.2948 8.30707H96.0107ZM98.9026 1.64132C98.3071 1.64132 97.8493 1.50361 97.5292 1.2282C97.2092 0.945338 97.0454 0.535939 97.038 0H97.9647C97.9721 0.26797 98.054 0.480113 98.2103 0.636428C98.3741 0.792744 98.6011 0.870902 98.8914 0.870902C99.1743 0.870902 99.3976 0.792744 99.5613 0.636428C99.7325 0.480113 99.8219 0.26797 99.8293 0H100.778C100.771 0.535939 100.603 0.945338 100.276 1.2282C99.9559 1.50361 99.4981 1.64132 98.9026 1.64132Z" fill="#0056B9"/>
<path d="M88.1709 8.30705V2.34473H89.5666V6.27495L92.8604 2.34473H94.1332V8.30705H92.7375V4.37683L89.4549 8.30705H88.1709Z" fill="#0056B9"/>
<path d="M80.5059 8.30705V2.34473H81.9015V4.76762H84.905V2.34473H86.3007V8.30705H84.905V5.95115H81.9015V8.30705H80.5059Z" fill="#0056B9"/>
<path d="M71.5098 8.30705V2.34473H72.9724L75.373 6.57642H74.7924L77.3158 2.34473H78.6221L78.6333 8.30705H77.3716V3.84089L77.5949 3.98604L75.3618 7.68179H74.7589L72.5147 3.88555L72.7826 3.81856V8.30705H71.5098Z" fill="#0056B9"/>
<path d="M67.1815 8.38525C66.519 8.38525 65.9384 8.25499 65.4397 7.99446C64.9484 7.72649 64.5651 7.36175 64.2896 6.90025C64.0217 6.43875 63.8877 5.91397 63.8877 5.32593C63.8877 4.73044 64.018 4.20566 64.2785 3.7516C64.5465 3.2901 64.9112 2.92909 65.3727 2.66856C65.8416 2.40803 66.3739 2.27777 66.9693 2.27777C67.5499 2.27777 68.0673 2.40431 68.5213 2.65739C68.9754 2.91048 69.3327 3.26777 69.5932 3.72927C69.8537 4.19078 69.984 4.73416 69.984 5.35942C69.984 5.41897 69.9803 5.48597 69.9728 5.5604C69.9728 5.63484 69.9691 5.70555 69.9617 5.77254H64.9931V4.84582H69.2248L68.6777 5.13612C68.6851 4.79371 68.6144 4.49224 68.4655 4.23172C68.3166 3.97119 68.1119 3.76649 67.8514 3.61762C67.5983 3.46875 67.3043 3.39431 66.9693 3.39431C66.6269 3.39431 66.3255 3.46875 66.0649 3.61762C65.8119 3.76649 65.6109 3.97491 65.462 4.24288C65.3206 4.50341 65.2499 4.81232 65.2499 5.16961V5.39292C65.2499 5.75021 65.3318 6.06657 65.4955 6.34198C65.6593 6.61739 65.89 6.82954 66.1878 6.97841C66.4855 7.12728 66.8279 7.20172 67.215 7.20172C67.5499 7.20172 67.8514 7.14961 68.1194 7.0454C68.3874 6.94119 68.6255 6.77743 68.834 6.55412L69.5821 7.41386C69.3141 7.72649 68.9754 7.96841 68.566 8.13961C68.164 8.30337 67.7025 8.38525 67.1815 8.38525Z" fill="#0056B9"/>
<path d="M60.1665 8.30705V3.1933L60.4903 3.52826H58.0674V2.34473H63.6501V3.52826H61.2384L61.5622 3.1933V8.30705H60.1665Z" fill="#0056B9"/>
<path d="M55.1965 8.38525C54.5713 8.38525 54.013 8.25499 53.5217 7.99446C53.0379 7.72649 52.6583 7.36175 52.3828 6.90025C52.1074 6.43875 51.9697 5.91397 51.9697 5.32593C51.9697 4.73044 52.1074 4.20566 52.3828 3.7516C52.6583 3.2901 53.0379 2.92909 53.5217 2.66856C54.013 2.40803 54.5713 2.27777 55.1965 2.27777C55.7771 2.27777 56.287 2.39687 56.7262 2.63506C57.1728 2.86582 57.5115 3.20822 57.7422 3.66228L56.6704 4.28754C56.4917 4.00469 56.2721 3.79627 56.0116 3.66228C55.7585 3.5283 55.4831 3.4613 55.1854 3.4613C54.843 3.4613 54.534 3.53574 54.2586 3.68461C53.9832 3.83348 53.7674 4.04935 53.611 4.33221C53.4547 4.60762 53.3766 4.93886 53.3766 5.32593C53.3766 5.713 53.4547 6.04796 53.611 6.33081C53.7674 6.60623 53.9832 6.81837 54.2586 6.96724C54.534 7.11612 54.843 7.19055 55.1854 7.19055C55.4831 7.19055 55.7585 7.12356 56.0116 6.98957C56.2721 6.85559 56.4917 6.64717 56.6704 6.36431L57.7422 6.98957C57.5115 7.43619 57.1728 7.78232 56.7262 8.02796C56.287 8.26615 55.7771 8.38525 55.1965 8.38525Z" fill="#0056B9"/>
<path d="M44.6436 8.30705V2.34473H46.0392V6.27495L49.333 2.34473H50.6059V8.30705H49.2102V4.37683L45.9276 8.30705H44.6436Z" fill="#0056B9"/>
<path d="M40.8694 8.38525C40.2441 8.38525 39.6858 8.25499 39.1946 7.99446C38.7107 7.72649 38.3311 7.36175 38.0557 6.90025C37.7803 6.43875 37.6426 5.91397 37.6426 5.32593C37.6426 4.73044 37.7803 4.20566 38.0557 3.7516C38.3311 3.2901 38.7107 2.92909 39.1946 2.66856C39.6858 2.40803 40.2441 2.27777 40.8694 2.27777C41.45 2.27777 41.9599 2.39687 42.399 2.63506C42.8457 2.86582 43.1843 3.20822 43.4151 3.66228L42.3432 4.28754C42.1646 4.00469 41.945 3.79627 41.6845 3.66228C41.4314 3.5283 41.156 3.4613 40.8582 3.4613C40.5158 3.4613 40.2069 3.53574 39.9315 3.68461C39.6561 3.83348 39.4402 4.04935 39.2839 4.33221C39.1276 4.60762 39.0494 4.93886 39.0494 5.32593C39.0494 5.713 39.1276 6.04796 39.2839 6.33081C39.4402 6.60623 39.6561 6.81837 39.9315 6.96724C40.2069 7.11612 40.5158 7.19055 40.8582 7.19055C41.156 7.19055 41.4314 7.12356 41.6845 6.98957C41.945 6.85559 42.1646 6.64717 42.3432 6.36431L43.4151 6.98957C43.1843 7.43619 42.8457 7.78232 42.399 8.02796C41.9599 8.26615 41.45 8.38525 40.8694 8.38525Z" fill="#0056B9"/>
<path d="M5.84678 23.9987L11.0917 18.7865L14.531 22.2258L21.4955 15.2698V19.2027H23.2152V12.3241H16.3366V14.0437H20.2677L14.531 19.7822L11.0917 16.3429L4.66367 22.8139L5.84678 23.9987ZM2.77894 32.1C1.98676 32.1 1.32584 31.8351 0.796194 31.3055C0.266544 30.7759 0.00114643 30.1144 0 29.321V7.36464C0 6.57245 0.265398 5.91154 0.796194 5.38189C1.32699 4.85224 1.98791 4.58684 2.77894 4.58569H24.7371C25.5281 4.58569 26.189 4.85109 26.7198 5.38189C27.2506 5.91268 27.5154 6.5736 27.5143 7.36464V29.3228C27.5143 30.1138 27.2495 30.7747 26.7198 31.3055C26.1902 31.8363 25.5287 32.1011 24.7353 32.1H2.77894Z" fill="#0056B9"/>
</svg>
